<svg width="29" height="33" viewBox="0 0 29 33" fill="none" xmlns="http://www.w3.org/2000/svg">
<path fill-rule="evenodd" clip-rule="evenodd" d="M22.8536 20.2475L15.8048 13.1964L8.75414 6.14643C8.55888 5.95119 8.24233 5.95119 8.04707 6.14643C3.98431 10.2088 3.98431 16.8902 8.04707 20.9526C12.1098 25.015 18.7908 25.0159 22.8535 20.9546C23.0488 20.7594 23.0488 20.4428 22.8536 20.2475ZM8.40998 7.21645L15.0977 13.9035L21.7835 20.5915C18.0862 23.9144 12.3078 23.7989 8.75414 20.2455C5.2005 16.6922 5.08578 10.9134 8.40998 7.21645Z" fill="black"/>
<path d="M15.7528 12.8708C15.5806 13.0431 15.3014 13.0431 15.1292 12.8708C14.9569 12.6986 14.9569 12.4194 15.1292 12.2472L18.2472 9.12915C18.4194 8.95695 18.6986 8.95695 18.8708 9.12915C19.0431 9.30136 19.0431 9.58056 18.8708 9.75277L15.7528 12.8708Z" fill="black"/>
<path d="M11.0006 23.2908C11.0006 23.0147 11.2245 22.7908 11.5006 22.7908C11.7768 22.7908 12.0006 23.0147 12.0006 23.2908V27.5001C12.0006 27.7763 11.7768 28.0001 11.5006 28.0001H5.50065C5.12835 28.0001 4.88663 27.6078 5.05406 27.2753L8.07506 21.2753C8.19925 21.0286 8.49986 20.9293 8.74651 21.0535C8.99315 21.1777 9.09242 21.4783 8.96824 21.725L6.3122 27.0001H11.0006V23.2908Z" fill="black"/>
<path opacity="0.5" d="M18.5 1C18.2239 1 18 0.776142 18 0.5C18 0.223858 18.2239 0 18.5 0C24.3075 0 29 4.6922 29 10.5C29 10.7761 28.7761 11 28.5 11C28.2239 11 28 10.7761 28 10.5C28 5.2445 23.7552 1 18.5 1Z" fill="#00D1C1"/>
<path opacity="0.5" d="M18.5 6C18.2239 6 18 5.77614 18 5.5C18 5.22386 18.2239 5 18.5 5C21.7389 5 24 7.27335 24 10.5C24 10.7761 23.7761 11 23.5 11C23.2239 11 23 10.7761 23 10.5C23 7.82443 21.1854 6 18.5 6Z" fill="#00D1C1"/>
<path fill-rule="evenodd" clip-rule="evenodd" d="M0.5 33H16.5C16.7761 33 17 32.7761 17 32.5V30C17 28.3653 15.9078 27 14.5 27H2.5C1.09225 27 0 28.3653 0 30V32.5C0 32.7761 0.223858 33 0.5 33ZM16 30V32H1V30C1 28.8747 1.69975 28 2.5 28H14.5C15.3003 28 16 28.8747 16 30Z" fill="black"/>
</svg>
