<svg width="30" height="32" viewBox="0 0 30 32" fill="none" xmlns="http://www.w3.org/2000/svg">
<path opacity="0.5" d="M10.5 0C10.7761 0 11 0.223858 11 0.5C11 0.776142 10.7761 1 10.5 1C5.24479 1 1 5.2445 1 10.5C1 10.7761 0.776142 11 0.5 11C0.223858 11 0 10.7761 0 10.5C0 4.6922 4.69252 0 10.5 0Z" fill="#00D1C1"/>
<path opacity="0.5" d="M10.5 5C10.7761 5 11 5.22386 11 5.5C11 5.77614 10.7761 6 10.5 6C7.81462 6 6 7.82443 6 10.5C6 10.7761 5.77614 11 5.5 11C5.22386 11 5 10.7761 5 10.5C5 7.27335 7.26113 5 10.5 5Z" fill="#00D1C1"/>
<path d="M21.7725 21.1349C21.9741 21.3236 21.9846 21.64 21.796 21.8417C21.6073 22.0433 21.2909 22.0538 21.0893 21.8651L10.55 12.0038C9.76755 11.2729 9.82858 10.1039 10.678 9.44028C11.4799 8.81379 12.6997 8.86087 13.4353 9.5497L25.8413 21.1346C26.0431 21.3231 26.0539 21.6395 25.8655 21.8413C25.677 22.0431 25.3606 22.054 25.1588 21.8655L12.7523 10.2801C12.3777 9.92934 11.7094 9.90354 11.2937 10.2283C10.9253 10.5161 10.9019 10.9641 11.2329 11.2733L21.7725 21.1349Z" fill="black"/>
<path fill-rule="evenodd" clip-rule="evenodd" d="M2.5 32H27.5C28.8801 32 30 30.8801 30 29.5V23.5C30 22.1199 28.8801 21 27.5 21H2.5C1.11986 21 0 22.1199 0 23.5V29.5C0 30.8801 1.11986 32 2.5 32ZM29 29.5C29 30.3279 28.3279 31 27.5 31H2.5C1.67214 31 1 30.3279 1 29.5V23.5C1 22.6721 1.67214 22 2.5 22H27.5C28.3279 22 29 22.6721 29 23.5V29.5Z" fill="black"/>
<path fill-rule="evenodd" clip-rule="evenodd" d="M6.5 27H23.5C24.3291 27 25 26.3291 25 25.5V21.5C25 21.2239 24.7761 21 24.5 21H5.5C5.22386 21 5 21.2239 5 21.5V25.5C5 26.3291 5.67086 27 6.5 27ZM6 25.5V22H24V25.5C24 25.7769 23.7769 26 23.5 26H6.5C6.22314 26 6 25.7769 6 25.5Z" fill="black"/>
</svg>
