<svg width="20" height="20" viewBox="0 0 20 20" fill="none" xmlns="http://www.w3.org/2000/svg">
<path fill-rule="evenodd" clip-rule="evenodd" d="M10 19C14.9706 19 19 14.9706 19 10C19 5.02944 14.9706 1 10 1C5.02944 1 1 5.02944 1 10C1 14.9706 5.02944 19 10 19ZM10 20C15.5228 20 20 15.5228 20 10C20 4.47715 15.5228 0 10 0C4.47715 0 0 4.47715 0 10C0 15.5228 4.47715 20 10 20Z" fill="#00d1c1"/>
<mask id="path-2-outside-1_1:200" maskUnits="userSpaceOnUse" x="8" y="3" width="4" height="14" fill="black">
<rect fill="white" x="8" y="3" width="4" height="14"/>
<path fill-rule="evenodd" clip-rule="evenodd" d="M11 5C11 5.55228 10.5523 6 10 6C9.44772 6 9 5.55228 9 5C9 4.44772 9.44772 4 10 4C10.5523 4 11 4.44772 11 5ZM11 10C11 10.5523 10.5523 11 10 11C9.44772 11 9 10.5523 9 10C9 9.44772 9.44772 9 10 9C10.5523 9 11 9.44772 11 10ZM10 16C10.5523 16 11 15.5523 11 15C11 14.4477 10.5523 14 10 14C9.44772 14 9 14.4477 9 15C9 15.5523 9.44772 16 10 16Z"/>
</mask>
<path d="M10 7C11.1046 7 12 6.10457 12 5H10V7ZM8 5C8 6.10457 8.89543 7 10 7V5H8ZM10 3C8.89543 3 8 3.89543 8 5H10V3ZM12 5C12 3.89543 11.1046 3 10 3V5H12ZM10 12C11.1046 12 12 11.1046 12 10H10V12ZM8 10C8 11.1046 8.89543 12 10 12V10H8ZM10 8C8.89543 8 8 8.89543 8 10H10V8ZM12 10C12 8.89543 11.1046 8 10 8V10H12ZM10 15V17C11.1046 17 12 16.1046 12 15H10ZM10 15H12C12 13.8954 11.1046 13 10 13V15ZM10 15V13C8.89543 13 8 13.8954 8 15H10ZM10 15H8C8 16.1046 8.89543 17 10 17V15Z" fill="#00d1c1" mask="url(#path-2-outside-1_1:200)"/>
</svg>
