<svg width="20" height="33" viewBox="0 0 20 33" fill="none" xmlns="http://www.w3.org/2000/svg">
<path fill-rule="evenodd" clip-rule="evenodd" d="M12.9834 15.4297C12.9544 15.3707 12.8924 15.3327 12.8234 15.3327H10.7324L12.7964 12.2557C12.8314 12.2037 12.8334 12.1397 12.8014 12.0857C12.7704 12.0337 12.7114 11.9997 12.6474 11.9997H9.8234C9.7564 11.9997 9.6954 12.0357 9.6664 12.0917L7.0184 17.0917C6.9914 17.1437 6.9944 17.2047 7.0264 17.2537C7.0584 17.3037 7.1154 17.3327 7.1764 17.3327H8.9914L7.0134 21.7687C6.9804 21.8447 7.0094 21.9327 7.0844 21.9757C7.1134 21.9917 7.1444 21.9997 7.1764 21.9997C7.2264 21.9997 7.2774 21.9797 7.3114 21.9407L12.9594 15.6077C13.0034 15.5577 13.0124 15.4887 12.9834 15.4297Z" fill="#00D3C1" fill-opacity="0.5"/>
<path fill-rule="evenodd" clip-rule="evenodd" d="M5 33H15C17.8868 33 20 30.8646 20 28V5C20 2.13542 17.8868 0 15 0H5C2.11318 0 0 2.13542 0 5V28C0 30.8646 2.11318 33 5 33ZM19 28C19 30.3146 17.3322 32 15 32H5C2.66782 32 1 30.3146 1 28V5C1 2.68538 2.66782 1 5 1H15C17.3322 1 19 2.68538 19 5V28Z" fill="black"/>
<path d="M1 28C0.223858 28 0 27.7761 0 28C0 27.2239 0.223858 27 1 27H20C19.7761 27 20 27.2239 20 28C20 27.7761 19.7761 28 20 28H1Z" fill="black"/>
<path d="M1 7C0.223858 7 0 6.77614 0 7C0 6.22386 0.223858 6 1 6H20C19.7761 6 20 6.22386 20 7C20 6.77614 19.7761 7 20 7H1Z" fill="black"/>
</svg>
